<?xml version="1.0"?>
<svg width="575.7" height="202.7" xmlns="http://www.w3.org/2000/svg" xmlns:svg="http://www.w3.org/2000/svg">
 <style type="text/css">.st0{fill:url(#SVGID_1_);}
	.st1{fill:url(#SVGID_2_);}
	.st2{fill:url(#SVGID_3_);}
	.st3{fill:none;}
	.st4{fill:#941800;}
	.st5{font-family:&#x27;Avenir-Medium&#x27;;}
	.st6{font-size:136.5138px;}
	.st7{fill:url(#SVGID_4_);}
	.st8{fill:url(#SVGID_5_);}
	.st9{fill:url(#SVGID_6_);}
	.st10{fill:url(#SVGID_7_);}
	.st11{fill:url(#SVGID_8_);}</style>
 <linearGradient gradientTransform="matrix(0.3095 -0.9509 -0.9509 -0.3095 1052.4812 -357.596)" gradientUnits="userSpaceOnUse" id="SVGID_1_" x1="-743.5182" x2="-730.0997" y1="724.3849" y2="787.6674">
  <stop offset="0" stop-color="#1DE2CE"/>
  <stop offset="0.5296" stop-color="#158BFF"/>
  <stop offset="1" stop-color="#2E91BF"/>
 </linearGradient>
 <linearGradient gradientTransform="matrix(-0.4369 -0.8995 0.8995 -0.4369 -211.3485 -280.9672)" gradientUnits="userSpaceOnUse" id="SVGID_2_" x1="-494.6699" x2="-419.6791" y1="78.6103" y2="27.8476">
  <stop offset="0" stop-color="#1DE2CE"/>
  <stop offset="0.5296" stop-color="#158BFF"/>
  <stop offset="1" stop-color="#2E91BF"/>
 </linearGradient>
 <linearGradient gradientTransform="matrix(0.1768 -0.9842 -0.9842 -0.1768 886.7556 -452.1228)" gradientUnits="userSpaceOnUse" id="SVGID_3_" x1="-709.4811" x2="-677.8204" y1="665.0927" y2="752.9539">
  <stop offset="0" stop-color="#1DE2CE"/>
  <stop offset="0.5296" stop-color="#158BFF"/>
  <stop offset="1" stop-color="#2E91BF"/>
 </linearGradient>
 <g class="layer">
  <title>Layer 1</title>
  <path class="st0" d="m94,156.8l2.3,-93.1c0.2,-9.7 10.2,-16.4 16.8,-11.4l14.9,11.3c3.1,2.4 4.4,6.8 3.5,11.4l-17.1,81.8c-3,14 -20.7,14.1 -20.4,0z" id="svg_1"/>
  <path class="st1" d="m57.8,154.2l-18.3,-91.9c-1.9,-9.6 -12.9,-15.2 -18.6,-9.5l-12.7,12.8c-2.7,2.7 -3.2,7.1 -1.5,11.6l31.1,79.2c5.2,13.5 22.8,11.7 20,-2.2z" id="svg_2"/>
  <path class="st2" d="m64.9,158.2l-20.5,-101.4c-2.1,-10.6 7.6,-18.8 16.5,-13.8l19.9,11.1c4.2,2.3 6.8,6.9 6.9,12.1l0.6,90.4c0,15.4 -20.4,17 -23.4,1.6z" id="svg_3"/>
  <g id="svg_4">
   <rect class="st3" fill="black" height="126.7" id="svg_5" width="402.1" x="136.1" y="50.3"/>
   <g id="svg_7">
    <linearGradient gradientTransform="translate(0 22) translate(1 8) translate(-1 -17) matrix(1 0 0 -1 0 204)" gradientUnits="userSpaceOnUse" id="SVGID_4_" x1="185.8712" x2="230.6601" y1="140.8394" y2="-134.1246">
     <stop offset="0" stop-color="#FFFFFF"/>
     <stop offset="0.6697" stop-color="#999999"/>
    </linearGradient>
    <path class="st7" d="m203.7,163.5l-12.3,0l0,-10l-0.3,0c-1.5,3.5 -4.2,6.3 -8.1,8.4c-3.8,2.1 -8.2,3.2 -13.2,3.2c-3.2,0 -6.2,-0.5 -9,-1.4c-2.8,-1 -5.3,-2.4 -7.4,-4.4c-2.1,-2 -3.8,-4.6 -5.1,-7.7c-1.3,-3.1 -1.9,-6.8 -1.9,-11.1l0,-41.7l12.3,0l0,38.2c0,3 0.4,5.6 1.2,7.7c0.8,2.1 1.9,3.9 3.3,5.2c1.4,1.3 2.9,2.3 4.7,2.9c1.8,0.6 3.6,0.9 5.5,0.9c2.5,0 4.9,-0.4 7.1,-1.2c2.2,-0.8 4.1,-2.1 5.7,-3.9s2.9,-4 3.8,-6.8c0.9,-2.7 1.4,-6 1.4,-9.7l0,-33.3l12.3,0l0,64.7z" id="svg_8"/>
    <linearGradient gradientTransform="translate(0 22) translate(1 8) translate(-1 -17) matrix(1 0 0 -1 0 204)" gradientUnits="userSpaceOnUse" id="SVGID_5_" x1="264.8356" x2="309.6245" y1="153.7019" y2="-121.2621">
     <stop offset="0" stop-color="#FFFFFF"/>
     <stop offset="0.6697" stop-color="#999999"/>
    </linearGradient>
    <path class="st8" d="m225.4,66.9l33.6,0c4.2,0 8.1,0.5 11.7,1.5s6.7,2.5 9.3,4.4c2.6,2 4.6,4.5 6.1,7.5c1.5,3.1 2.3,6.6 2.3,10.7c0,5.6 -1.5,10.1 -4.6,13.6s-7.1,6.1 -12,7.7l0,0.3c2.9,0.2 5.6,0.9 8.2,2.3c2.5,1.3 4.8,3 6.6,5.2c1.9,2.1 3.3,4.6 4.4,7.4s1.6,5.9 1.6,9.1c0,4.4 -0.9,8.2 -2.7,11.5c-1.8,3.3 -4.2,6.1 -7.3,8.4c-3.1,2.3 -6.7,4 -10.8,5.2c-4.1,1.2 -8.5,1.8 -13.2,1.8l-33.2,0l0,-96.6l0,0zm13.1,40.1l17.9,0c2.5,0 4.8,-0.2 7,-0.8c2.2,-0.5 4.1,-1.3 5.7,-2.5s2.9,-2.7 3.9,-4.5s1.4,-4 1.4,-6.7c0,-3.8 -1.2,-7.1 -3.7,-10c-2.5,-2.8 -6.3,-4.2 -11.6,-4.2l-20.6,0l0,28.7l0,0zm0,45.1l19.2,0c2,0 4.2,-0.2 6.6,-0.6c2.4,-0.4 4.7,-1.2 6.8,-2.5c2.1,-1.2 3.9,-2.9 5.3,-5c1.5,-2.1 2.2,-4.9 2.2,-8.3c0,-5.7 -1.9,-10 -5.6,-12.9s-8.8,-4.3 -15.2,-4.3l-19.4,0l0,33.6l0.1,0z" id="svg_9"/>
    <linearGradient gradientTransform="translate(0 22) translate(1 8) translate(-1 -17) matrix(1 0 0 -1 0 204)" gradientUnits="userSpaceOnUse" id="SVGID_6_" x1="344.4884" x2="389.2773" y1="166.6765" y2="-108.2875">
     <stop offset="0" stop-color="#FFFFFF"/>
     <stop offset="0.6697" stop-color="#999999"/>
    </linearGradient>
    <path class="st9" d="m305.1,131.2c0,-4.7 0.9,-9.1 2.7,-13.2c1.8,-4.1 4.2,-7.7 7.3,-10.8c3.1,-3.1 6.7,-5.5 10.9,-7.3c4.2,-1.8 8.7,-2.7 13.5,-2.7s9.3,0.9 13.5,2.7c4.2,1.8 7.8,4.2 10.9,7.3c3.1,3.1 5.5,6.7 7.3,10.8c1.8,4.1 2.7,8.5 2.7,13.2s-0.9,9.2 -2.7,13.3c-1.8,4.1 -4.2,7.7 -7.3,10.8c-3.1,3 -6.7,5.5 -10.9,7.2c-4.2,1.8 -8.7,2.7 -13.5,2.7s-9.3,-0.9 -13.5,-2.7s-7.8,-4.2 -10.9,-7.2s-5.5,-6.6 -7.3,-10.8c-1.8,-4.2 -2.7,-8.6 -2.7,-13.3zm13.1,0c0,3.3 0.5,6.3 1.5,9.1s2.4,5.1 4.2,7.1c1.8,2 4,3.5 6.7,4.6c2.6,1.1 5.6,1.7 8.9,1.7s6.2,-0.6 8.9,-1.7c2.6,-1.1 4.9,-2.7 6.7,-4.6c1.8,-2 3.2,-4.3 4.2,-7.1c1,-2.8 1.5,-5.8 1.5,-9.1c0,-3.3 -0.5,-6.3 -1.5,-9.1c-1,-2.8 -2.4,-5.1 -4.2,-7.1c-1.8,-2 -4.1,-3.5 -6.7,-4.6s-5.6,-1.7 -8.9,-1.7s-6.2,0.6 -8.9,1.7c-2.6,1.1 -4.9,2.7 -6.7,4.6c-1.8,2 -3.2,4.3 -4.2,7.1c-1,2.8 -1.5,5.8 -1.5,9.1z" fill="black" id="svg_10"/>
    <linearGradient gradientTransform="translate(0 22) translate(1 8) translate(-1 -17) matrix(1 0 0 -1 0 204)" gradientUnits="userSpaceOnUse" id="SVGID_7_" x1="423.4922" x2="468.281" y1="179.5455" y2="-95.4186">
     <stop offset="0" stop-color="#FFFFFF"/>
     <stop offset="0.6697" stop-color="#999999"/>
    </linearGradient>
    <path class="st10" d="m386.2,131.2c0,-4.7 0.9,-9.1 2.7,-13.2c1.8,-4.1 4.2,-7.7 7.3,-10.8c3.1,-3.1 6.7,-5.5 10.9,-7.3c4.2,-1.8 8.7,-2.7 13.5,-2.7s9.3,0.9 13.5,2.7c4.2,1.8 7.8,4.2 10.9,7.3c3.1,3.1 5.5,6.7 7.3,10.8c1.8,4.1 2.7,8.5 2.7,13.2s-0.9,9.2 -2.7,13.3c-1.8,4.1 -4.2,7.7 -7.3,10.8c-3.1,3 -6.7,5.5 -10.9,7.2c-4.2,1.8 -8.7,2.7 -13.5,2.7s-9.3,-0.9 -13.5,-2.7s-7.8,-4.2 -10.9,-7.2s-5.5,-6.6 -7.3,-10.8c-1.8,-4.2 -2.7,-8.6 -2.7,-13.3zm13.1,0c0,3.3 0.5,6.3 1.5,9.1s2.4,5.1 4.2,7.1c1.8,2 4,3.5 6.7,4.6c2.6,1.1 5.6,1.7 8.9,1.7s6.2,-0.6 8.9,-1.7c2.6,-1.1 4.9,-2.7 6.7,-4.6c1.8,-2 3.2,-4.3 4.2,-7.1c1,-2.8 1.5,-5.8 1.5,-9.1c0,-3.3 -0.5,-6.3 -1.5,-9.1c-1,-2.8 -2.4,-5.1 -4.2,-7.1c-1.8,-2 -4.1,-3.5 -6.7,-4.6s-5.6,-1.7 -8.9,-1.7s-6.2,0.6 -8.9,1.7c-2.6,1.1 -4.9,2.7 -6.7,4.6c-1.8,2 -3.2,4.3 -4.2,7.1c-1,2.8 -1.5,5.8 -1.5,9.1z" id="svg_11"/>
    <linearGradient gradientTransform="translate(0 22) translate(1 8) translate(-1 -17) matrix(1 0 0 -1 0 204)" gradientUnits="userSpaceOnUse" id="SVGID_8_" x1="499.9636" x2="544.7525" y1="192.0019" y2="-82.9621">
     <stop offset="0" stop-color="#FFFFFF"/>
     <stop offset="0.6697" stop-color="#999999"/>
    </linearGradient>
    <path class="st11" d="m470.5,60.3l12.3,0l0,66.6l27.8,-28l17.1,0l-30.2,29.4l32.8,35.2l-17.5,0l-30,-33.6l0,33.6l-12.3,0l0,-103.2l0,0z" fill="black" id="svg_12"/>
   </g>
  </g>
 </g>
</svg>